<svg width="454" height="346" viewBox="0 0 454 346" fill="none" xmlns="http://www.w3.org/2000/svg">
    <path d="M3.00001 12L2.99999 342" stroke="#316274" stroke-width="6" stroke-linecap="round" />
    <path
        d="M48 306L118.224 210.172C118.525 209.762 119.084 209.643 119.525 209.894L177.639 242.962C178.059 243.201 178.591 243.105 178.901 242.733L265.057 139.523C265.321 139.207 265.75 139.085 266.14 139.215L349.317 166.824C349.726 166.959 350.176 166.818 350.434 166.473L369 141.609"
        stroke="#316274" stroke-width="11" stroke-linecap="round" />
    <path d="M4 343L395 343" stroke="#316274" stroke-width="6" stroke-linecap="round" />
    <rect x="284" width="170" height="87" rx="12" fill="#316274" />
    <path d="M368.5 113L352.479 85.25H384.521L368.5 113Z" fill="#316274" />
    <path
        d="M320.691 23.0508V28.8125H317.645V23.0508H320.691ZM320.32 54.9453V60.1992H317.273V54.9453H320.32ZM322.469 48.5391C322.469 47.7969 322.332 47.1654 322.059 46.6445C321.798 46.1237 321.368 45.6615 320.77 45.2578C320.184 44.8542 319.389 44.4635 318.387 44.0859C316.694 43.4349 315.203 42.7448 313.914 42.0156C312.638 41.2734 311.642 40.3555 310.926 39.2617C310.21 38.1549 309.852 36.7552 309.852 35.0625C309.852 33.4479 310.236 32.0482 311.004 30.8633C311.772 29.6784 312.833 28.7669 314.188 28.1289C315.555 27.4779 317.143 27.1523 318.953 27.1523C320.333 27.1523 321.583 27.3607 322.703 27.7773C323.823 28.181 324.786 28.7799 325.594 29.5742C326.401 30.3555 327.02 31.3125 327.449 32.4453C327.879 33.5781 328.094 34.8737 328.094 36.332H322.488C322.488 35.5508 322.404 34.8607 322.234 34.2617C322.065 33.6628 321.818 33.1615 321.492 32.7578C321.18 32.3542 320.802 32.0547 320.359 31.8594C319.917 31.651 319.428 31.5469 318.895 31.5469C318.1 31.5469 317.449 31.7031 316.941 32.0156C316.434 32.3281 316.062 32.7513 315.828 33.2852C315.607 33.806 315.496 34.4049 315.496 35.082C315.496 35.7461 315.613 36.3255 315.848 36.8203C316.095 37.3151 316.518 37.7708 317.117 38.1875C317.716 38.5911 318.536 39.0078 319.578 39.4375C321.271 40.0885 322.755 40.7917 324.031 41.5469C325.307 42.3021 326.303 43.2266 327.02 44.3203C327.736 45.4141 328.094 46.8073 328.094 48.5C328.094 50.1797 327.703 51.612 326.922 52.7969C326.141 53.9688 325.047 54.8672 323.641 55.4922C322.234 56.1042 320.607 56.4102 318.758 56.4102C317.56 56.4102 316.368 56.2539 315.184 55.9414C313.999 55.6159 312.924 55.0951 311.961 54.3789C310.997 53.6628 310.229 52.7122 309.656 51.5273C309.083 50.3294 308.797 48.8581 308.797 47.1133H314.422C314.422 48.0638 314.546 48.8581 314.793 49.4961C315.04 50.1211 315.366 50.6224 315.77 51C316.186 51.3646 316.655 51.625 317.176 51.7812C317.697 51.9375 318.224 52.0156 318.758 52.0156C319.591 52.0156 320.275 51.8659 320.809 51.5664C321.355 51.2669 321.766 50.8568 322.039 50.3359C322.326 49.8021 322.469 49.2031 322.469 48.5391ZM351.082 48.207C351.082 49.9909 350.665 51.4948 349.832 52.7188C348.999 53.9297 347.853 54.8477 346.395 55.4727C344.949 56.0846 343.309 56.3906 341.473 56.3906C339.637 56.3906 337.99 56.0846 336.531 55.4727C335.073 54.8477 333.921 53.9297 333.074 52.7188C332.228 51.4948 331.805 49.9909 331.805 48.207C331.805 47.0091 332.046 45.9284 332.527 44.9648C333.009 43.9883 333.68 43.1549 334.539 42.4648C335.411 41.7617 336.434 41.2279 337.605 40.8633C338.777 40.4857 340.053 40.2969 341.434 40.2969C343.283 40.2969 344.936 40.6224 346.395 41.2734C347.853 41.9245 348.999 42.8424 349.832 44.0273C350.665 45.2122 351.082 46.6055 351.082 48.207ZM345.418 47.8359C345.418 46.9635 345.249 46.2148 344.91 45.5898C344.585 44.9518 344.122 44.4635 343.523 44.125C342.924 43.7865 342.228 43.6172 341.434 43.6172C340.639 43.6172 339.943 43.7865 339.344 44.125C338.745 44.4635 338.276 44.9518 337.938 45.5898C337.612 46.2148 337.449 46.9635 337.449 47.8359C337.449 48.6953 337.612 49.4375 337.938 50.0625C338.276 50.6875 338.745 51.1693 339.344 51.5078C339.956 51.8333 340.665 51.9961 341.473 51.9961C342.28 51.9961 342.977 51.8333 343.562 51.5078C344.161 51.1693 344.617 50.6875 344.93 50.0625C345.255 49.4375 345.418 48.6953 345.418 47.8359ZM350.477 35.1016C350.477 36.5469 350.092 37.8294 349.324 38.9492C348.556 40.056 347.488 40.9219 346.121 41.5469C344.767 42.1719 343.217 42.4844 341.473 42.4844C339.715 42.4844 338.152 42.1719 336.785 41.5469C335.418 40.9219 334.35 40.056 333.582 38.9492C332.814 37.8294 332.43 36.5469 332.43 35.1016C332.43 33.3828 332.814 31.9375 333.582 30.7656C334.363 29.5807 335.431 28.6823 336.785 28.0703C338.152 27.4583 339.702 27.1523 341.434 27.1523C343.191 27.1523 344.747 27.4583 346.102 28.0703C347.469 28.6823 348.536 29.5807 349.305 30.7656C350.086 31.9375 350.477 33.3828 350.477 35.1016ZM344.852 35.3555C344.852 34.5872 344.715 33.9232 344.441 33.3633C344.168 32.7904 343.777 32.3477 343.27 32.0352C342.775 31.7227 342.163 31.5664 341.434 31.5664C340.73 31.5664 340.125 31.7161 339.617 32.0156C339.122 32.3151 338.738 32.7513 338.465 33.3242C338.204 33.8841 338.074 34.5612 338.074 35.3555C338.074 36.1237 338.204 36.8008 338.465 37.3867C338.738 37.9596 339.129 38.4089 339.637 38.7344C340.145 39.0599 340.757 39.2227 341.473 39.2227C342.189 39.2227 342.794 39.0599 343.289 38.7344C343.797 38.4089 344.181 37.9596 344.441 37.3867C344.715 36.8008 344.852 36.1237 344.852 35.3555ZM369.402 27.2695H370.223V31.7617H369.891C368.406 31.7617 367.085 31.9831 365.926 32.4258C364.767 32.8685 363.784 33.5 362.977 34.3203C362.182 35.1276 361.57 36.1042 361.141 37.25C360.724 38.3958 360.516 39.6784 360.516 41.0977V45.8242C360.516 46.8398 360.613 47.7383 360.809 48.5195C361.017 49.2878 361.31 49.9323 361.688 50.4531C362.078 50.9609 362.534 51.3451 363.055 51.6055C363.576 51.8529 364.161 51.9766 364.812 51.9766C365.424 51.9766 365.978 51.8464 366.473 51.5859C366.98 51.3255 367.41 50.9609 367.762 50.4922C368.126 50.0104 368.4 49.4505 368.582 48.8125C368.777 48.1615 368.875 47.4518 368.875 46.6836C368.875 45.9154 368.777 45.2057 368.582 44.5547C368.4 43.9036 368.126 43.3438 367.762 42.875C367.397 42.3932 366.954 42.0221 366.434 41.7617C365.913 41.5013 365.327 41.3711 364.676 41.3711C363.79 41.3711 363.009 41.5794 362.332 41.9961C361.668 42.3997 361.147 42.9206 360.77 43.5586C360.392 44.1966 360.19 44.8672 360.164 45.5703L358.465 44.4766C358.504 43.474 358.712 42.5234 359.09 41.625C359.48 40.7266 360.014 39.9323 360.691 39.2422C361.382 38.5391 362.208 37.9922 363.172 37.6016C364.135 37.1979 365.223 36.9961 366.434 36.9961C367.762 36.9961 368.927 37.25 369.93 37.7578C370.945 38.2656 371.792 38.9622 372.469 39.8477C373.146 40.7331 373.654 41.7552 373.992 42.9141C374.331 44.0729 374.5 45.3099 374.5 46.625C374.5 48.0052 374.272 49.2878 373.816 50.4727C373.374 51.6576 372.729 52.6927 371.883 53.5781C371.049 54.4635 370.047 55.1536 368.875 55.6484C367.703 56.1432 366.388 56.3906 364.93 56.3906C363.419 56.3906 362.046 56.1172 360.809 55.5703C359.585 55.0104 358.53 54.2292 357.645 53.2266C356.759 52.224 356.076 51.0326 355.594 49.6523C355.125 48.2721 354.891 46.7617 354.891 45.1211V42.9336C354.891 40.6419 355.223 38.5456 355.887 36.6445C356.564 34.7305 357.534 33.0768 358.797 31.6836C360.06 30.2773 361.583 29.1901 363.367 28.4219C365.151 27.6536 367.163 27.2695 369.402 27.2695ZM378.367 53.2852C378.367 52.4518 378.654 51.7552 379.227 51.1953C379.812 50.6354 380.587 50.3555 381.551 50.3555C382.514 50.3555 383.283 50.6354 383.855 51.1953C384.441 51.7552 384.734 52.4518 384.734 53.2852C384.734 54.1185 384.441 54.8151 383.855 55.375C383.283 55.9349 382.514 56.2148 381.551 56.2148C380.587 56.2148 379.812 55.9349 379.227 55.375C378.654 54.8151 378.367 54.1185 378.367 53.2852ZM395.223 39.3398H398.23C399.194 39.3398 399.988 39.1771 400.613 38.8516C401.238 38.513 401.701 38.0443 402 37.4453C402.312 36.8333 402.469 36.1237 402.469 35.3164C402.469 34.5872 402.326 33.9427 402.039 33.3828C401.766 32.8099 401.342 32.3672 400.77 32.0547C400.197 31.7292 399.474 31.5664 398.602 31.5664C397.911 31.5664 397.273 31.7031 396.688 31.9766C396.102 32.25 395.633 32.6341 395.281 33.1289C394.93 33.6237 394.754 34.2227 394.754 34.9258H389.109C389.109 33.3633 389.526 32.0026 390.359 30.8438C391.206 29.6849 392.339 28.7799 393.758 28.1289C395.177 27.4779 396.74 27.1523 398.445 27.1523C400.372 27.1523 402.059 27.4648 403.504 28.0898C404.949 28.7018 406.076 29.6068 406.883 30.8047C407.69 32.0026 408.094 33.487 408.094 35.2578C408.094 36.1562 407.885 37.0286 407.469 37.875C407.052 38.7083 406.453 39.4635 405.672 40.1406C404.904 40.8047 403.966 41.3385 402.859 41.7422C401.753 42.1328 400.509 42.3281 399.129 42.3281H395.223V39.3398ZM395.223 43.6172V40.707H399.129C400.678 40.707 402.039 40.8828 403.211 41.2344C404.383 41.5859 405.366 42.0938 406.16 42.7578C406.954 43.4089 407.553 44.1836 407.957 45.082C408.361 45.9674 408.562 46.9505 408.562 48.0312C408.562 49.3594 408.309 50.5443 407.801 51.5859C407.293 52.6146 406.577 53.487 405.652 54.2031C404.741 54.9193 403.673 55.4661 402.449 55.8438C401.225 56.2083 399.891 56.3906 398.445 56.3906C397.247 56.3906 396.069 56.2279 394.91 55.9023C393.764 55.5638 392.723 55.0625 391.785 54.3984C390.861 53.7214 390.118 52.875 389.559 51.8594C389.012 50.8307 388.738 49.6133 388.738 48.207H394.383C394.383 48.9362 394.565 49.5872 394.93 50.1602C395.294 50.7331 395.796 51.1823 396.434 51.5078C397.085 51.8333 397.807 51.9961 398.602 51.9961C399.5 51.9961 400.268 51.8333 400.906 51.5078C401.557 51.1693 402.052 50.7005 402.391 50.1016C402.742 49.4896 402.918 48.7799 402.918 47.9727C402.918 46.931 402.729 46.0977 402.352 45.4727C401.974 44.8346 401.434 44.3659 400.73 44.0664C400.027 43.7669 399.194 43.6172 398.23 43.6172H395.223ZM432.352 45.375V49.7891H411.863L411.59 46.3711L423.445 27.5625H427.918L423.074 35.668L417.176 45.375H432.352ZM429.129 27.5625V56H423.504V27.5625H429.129Z"
        fill="white" />
</svg>
