<svg width="387" height="346" viewBox="0 0 387 346" fill="none" xmlns="http://www.w3.org/2000/svg">
    <path
        d="M92.25 112.438H294.125M92.25 193.188H193.188M374.875 334.5L307.766 300.944C302.678 298.401 300.135 297.129 297.468 296.233C295.102 295.437 292.665 294.862 290.192 294.515C287.407 294.125 284.562 294.125 278.875 294.125H76.1C53.4878 294.125 42.1818 294.125 33.5452 289.724C25.948 285.854 19.7714 279.677 15.9007 272.08C11.5 263.444 11.5 252.137 11.5 229.525V76.1C11.5 53.4878 11.5 42.1818 15.9007 33.5452C19.7714 25.948 25.948 19.7714 33.5452 15.9007C42.1818 11.5 53.488 11.5 76.1 11.5H310.275C332.887 11.5 344.194 11.5 352.83 15.9007C360.427 19.7714 366.604 25.948 370.474 33.5452C374.875 42.1818 374.875 53.488 374.875 76.1V334.5Z"
        stroke="white" stroke-width="23" stroke-linecap="round" stroke-linejoin="round" />
</svg>