<svg width="229" height="183" viewBox="0 0 229 183" fill="none" xmlns="http://www.w3.org/2000/svg">
<path d="M9.5 126.167H219.5M9.5 172.833H149.5M9.5 32.8333H102.833M9.5 79.5H102.833M200.833 79.5H168.167C161.632 79.5 158.365 79.5 155.87 78.2283C153.674 77.1095 151.891 75.3257 150.772 73.13C149.5 70.6345 149.5 67.3672 149.5 60.8333V28.1667C149.5 21.6327 149.5 18.3657 150.772 15.8701C151.891 13.6749 153.674 11.8902 155.87 10.7716C158.365 9.5 161.632 9.5 168.167 9.5H200.833C207.368 9.5 210.635 9.5 213.13 10.7716C215.326 11.8902 217.11 13.6749 218.228 15.8701C219.5 18.3657 219.5 21.6327 219.5 28.1667V60.8333C219.5 67.3672 219.5 70.6345 218.228 73.13C217.11 75.3257 215.326 77.1095 213.13 78.2283C210.635 79.5 207.368 79.5 200.833 79.5Z" stroke="white" stroke-width="19" stroke-linecap="round" stroke-linejoin="round"/>
</svg>
