<svg width="185" height="135" viewBox="0 0 185 135" fill="none" xmlns="http://www.w3.org/2000/svg">
<path d="M66.9902 117.666C64.8424 119.671 63.1802 121.013 61.4815 121.994C53.1663 126.795 42.9216 126.795 34.6065 121.994C31.5423 120.225 28.5969 117.279 22.706 111.389C16.8151 105.498 13.8696 102.553 12.1006 99.4882C7.29981 91.1731 7.29981 80.9283 12.1006 72.6132C13.8696 69.5495 16.8151 66.604 22.706 60.713L48.044 35.3751C53.9349 29.4841 56.8803 26.5386 59.9444 24.7696C68.2597 19.9689 78.5045 19.9689 86.8196 24.7695C89.8834 26.5386 92.8289 29.4841 98.7199 35.3751C104.611 41.266 107.556 44.2114 109.326 47.2755C114.126 55.5906 114.126 65.8354 109.326 74.1505C108.345 75.849 107.003 77.5116 104.997 79.659M79.7739 54.4359C77.7681 56.5832 76.4262 58.2458 75.4452 59.9443C70.6448 68.2595 70.6448 78.5042 75.4452 86.8193C77.2145 89.884 80.16 92.8295 86.051 98.7196C91.942 104.611 94.8875 107.556 97.9513 109.325C106.266 114.126 116.511 114.126 124.826 109.325C127.891 107.556 130.836 104.611 136.727 98.7196L162.065 73.3818C167.956 67.4908 170.902 64.5454 172.67 61.4816C177.471 53.1665 177.471 42.9216 172.67 34.6065C170.902 31.5424 167.956 28.5969 162.065 22.706C156.174 16.8151 153.229 13.8697 150.165 12.1006C141.849 7.29981 131.605 7.29981 123.29 12.1006C121.591 13.0813 119.929 14.4236 117.781 16.4288" stroke="white" stroke-width="17" stroke-linecap="round"/>
</svg>
